<?xml version="1.0" encoding="utf-8"?>
<!-- Generator: Adobe Illustrator 15.1.0, SVG Export Plug-In . SVG Version: 6.00 Build 0)  -->
<!DOCTYPE svg PUBLIC "-//W3C//DTD SVG 1.1//EN" "http://www.w3.org/Graphics/SVG/1.1/DTD/svg11.dtd">
<svg version="1.1" xmlns="http://www.w3.org/2000/svg" xmlns:xlink="http://www.w3.org/1999/xlink" x="0px" y="0px" width="88px"
	 height="44px" viewBox="0 0 88 44" enable-background="new 0 0 88 44" xml:space="preserve">
<g id="Layer_1" display="none">
	<g display="inline">
		<path fill="#0088CC" d="M20.5,22.25c0.552,0,1,0.448,1,1c0,0.343-0.185,0.631-0.447,0.813c0.292,0.119,0.611,0.188,0.947,0.188
			c1.381,0,2.5-1.12,2.5-2.5s-1.119-2.5-2.5-2.5s-2.5,1.12-2.5,2.5c0,0.336,0.068,0.655,0.188,0.948
			C19.869,22.434,20.157,22.25,20.5,22.25z"/>
		<path fill="#0088CC" d="M22,14.75c-8.667,0-13,8-13,8s1.946,2.578,6,4.5c1.885,0.895,4.024,2,7,2c3.009,0,5.105-1.09,7-2
			c4.008-1.924,6-4.5,6-4.5S30.667,14.75,22,14.75z M22,18.25c1.93,0,3.5,1.57,3.5,3.5c0,1.93-1.57,3.5-3.5,3.5s-3.5-1.57-3.5-3.5
			C18.5,19.82,20.07,18.25,22,18.25z M28.135,25.447l-0.299,0.143c-1.69,0.816-3.439,1.66-5.836,1.66
			c-2.354,0-4.114-0.839-5.816-1.65l-0.326-0.156c-2.034-0.965-3.474-2.116-4.327-2.918c0.606-0.698,2.693-2.872,6.043-4.03
			C16.901,19.407,16.5,20.53,16.5,21.75c0,3.037,2.463,5.5,5.5,5.5s5.5-2.463,5.5-5.5c0-1.218-0.4-2.339-1.07-3.25
			c3.367,1.173,5.43,3.377,5.999,4.049C31.56,23.354,30.127,24.491,28.135,25.447z"/>
	</g>
	<path display="inline" fill="#0088CC" d="M77.896,21.985c-0.387,0.371-0.821,0.776-1.334,1.24c-0.441,0.418-1.666,1.467-3.58,2.379
		c-0.041,0.02-0.078,0.037-0.119,0.056c-0.26,0.122-0.534,0.239-0.819,0.354c-0.007,0.002-0.015,0.006-0.019,0.008
		c-0.73,0.291-1.541,0.547-2.428,0.744c-0.052,0.012-0.104,0.023-0.154,0.035c-0.17,0.036-0.342,0.071-0.518,0.104
		C67.191,27.223,66,27.165,66,27.165s-1.191,0.058-2.928-0.263c-0.174-0.031-0.348-0.066-0.518-0.103
		c-0.051-0.011-0.103-0.022-0.154-0.034c-0.887-0.199-1.695-0.455-2.426-0.746c-0.006-0.002-0.013-0.006-0.02-0.008
		c-0.285-0.113-0.561-0.231-0.82-0.354c-0.039-0.02-0.078-0.036-0.117-0.055c-1.914-0.914-3.14-1.963-3.58-2.379
		c-0.514-0.464-0.949-0.87-1.334-1.241C53.29,22.605,57.257,29.917,66,29.917S78.711,22.605,77.896,21.985z"/>
</g>
<g id="Layer_1_copy">
	<g>
		<path fill="#FFFFFF" d="M20.5,22.25c0.552,0,1,0.448,1,1c0,0.343-0.185,0.631-0.447,0.813c0.292,0.119,0.611,0.188,0.947,0.188
			c1.381,0,2.5-1.12,2.5-2.5s-1.119-2.5-2.5-2.5s-2.5,1.12-2.5,2.5c0,0.336,0.068,0.655,0.188,0.948
			C19.869,22.434,20.157,22.25,20.5,22.25z"/>
		<path fill="#FFFFFF" d="M22,14.75c-8.667,0-13,8-13,8s1.946,2.578,6,4.5c1.885,0.895,4.024,2,7,2c3.009,0,5.105-1.09,7-2
			c4.008-1.924,6-4.5,6-4.5S30.667,14.75,22,14.75z M22,18.25c1.93,0,3.5,1.57,3.5,3.5c0,1.93-1.57,3.5-3.5,3.5s-3.5-1.57-3.5-3.5
			C18.5,19.82,20.07,18.25,22,18.25z M28.135,25.447l-0.299,0.143c-1.69,0.816-3.439,1.66-5.836,1.66
			c-2.354,0-4.114-0.839-5.816-1.65l-0.326-0.156c-2.034-0.965-3.474-2.116-4.327-2.918c0.606-0.698,2.693-2.872,6.043-4.03
			C16.901,19.407,16.5,20.53,16.5,21.75c0,3.037,2.463,5.5,5.5,5.5s5.5-2.463,5.5-5.5c0-1.218-0.4-2.339-1.07-3.25
			c3.367,1.173,5.43,3.377,5.999,4.049C31.56,23.354,30.127,24.491,28.135,25.447z"/>
	</g>
	<path fill="#FFFFFF" d="M77.896,21.985c-0.387,0.371-0.821,0.776-1.334,1.24c-0.441,0.418-1.666,1.467-3.58,2.379
		c-0.041,0.02-0.078,0.037-0.119,0.056c-0.26,0.122-0.534,0.239-0.819,0.354c-0.007,0.002-0.015,0.006-0.019,0.008
		c-0.73,0.291-1.541,0.547-2.428,0.744c-0.052,0.012-0.104,0.023-0.154,0.035c-0.17,0.036-0.342,0.071-0.518,0.104
		C67.191,27.223,66,27.165,66,27.165s-1.191,0.058-2.928-0.263c-0.174-0.031-0.348-0.066-0.518-0.103
		c-0.051-0.011-0.103-0.022-0.154-0.034c-0.887-0.199-1.695-0.455-2.426-0.746c-0.006-0.002-0.013-0.006-0.02-0.008
		c-0.285-0.113-0.561-0.231-0.82-0.354c-0.039-0.02-0.078-0.036-0.117-0.055c-1.914-0.914-3.14-1.963-3.58-2.379
		c-0.514-0.464-0.949-0.87-1.334-1.241C53.29,22.605,57.257,29.917,66,29.917S78.711,22.605,77.896,21.985z"/>
</g>
</svg>
